<svg xmlns="http://www.w3.org/2000/svg" width="22" height="39" fill="none" viewBox="0 0 22 39"><path fill="url(#paint0_linear_2788_22897)" d="M18.2407 4.54119C18.2407 4.54119 16.2649 4.13877 14.8401 4.39708C13.4153 4.65538 13.751 4.79517 13.3011 5.57318C12.8512 6.35119 13.1886 5.92426 13.7596 6.04758C14.3306 6.1709 13.6328 6.20023 13.0352 6.3759C12.4376 6.55157 11.7336 6.35241 11.3167 7.05991C10.9 7.77735 10.375 8.99487 10.375 8.99487L15.3545 8.14073L17.3691 7.11048L18.2407 4.54119Z"/><path fill="url(#paint1_linear_2788_22897)" d="M17.4079 6.70152C17.4079 6.70152 14.8932 7.32812 13.3118 7.61065C11.7305 7.89319 10.9985 7.94335 10.7472 8.32811C10.4959 8.71288 9.9984 9.66122 10.4446 9.38039C10.8909 9.09957 12.5935 8.78384 12.2275 9.12209C11.8611 9.4504 11.2441 9.55702 10.1597 10.124C9.07526 10.691 9.07139 10.5519 8.69157 11.3379C8.30303 12.1241 9.15217 11.5736 9.56489 11.3435C9.98634 11.113 9.93217 11.3631 8.98982 12.0156C8.04747 12.6681 8.21772 12.1961 7.66406 13.325C7.66406 13.325 10.1234 12.5905 12.4492 11.7604C14.7662 10.9305 16.4845 9.29213 16.4845 9.29213L17.4079 6.70152Z"/><path fill="url(#paint2_linear_2788_22897)" d="M16.3264 9.19641C16.3264 9.19641 14.5113 10.8077 11.9808 11.4944C9.44148 12.1813 9.0879 12.3402 8.43446 12.7064C7.78075 13.0625 7.78075 13.0625 7.56715 13.5457C7.35327 14.0189 7.81559 13.6879 8.28635 13.3467C8.75711 13.0056 10.6352 12.4066 11.3309 12.6159C12.0177 12.8255 11.575 12.9174 11.0246 13.221C10.4829 13.5243 8.82685 13.63 7.38198 15.052C5.9371 16.474 5.76562 18.1589 5.76562 18.1589C5.76562 18.1589 7.88475 15.8632 10.8465 15.6119C13.8083 15.3606 15.0714 12.4225 15.0714 12.4225L16.3264 9.19641Z"/><path fill="url(#paint3_linear_2788_22897)" d="M14.6473 12.9621C14.6473 12.9621 14.089 13.9221 11.8101 14.5521C9.53116 15.1821 7.20127 15.8632 6.58394 16.5862C5.96634 17.2993 5.61794 18.2733 5.81072 18.2978C6.00349 18.3222 8.43583 16.6143 9.09213 16.6657C9.74843 16.717 9.68249 16.858 8.93502 17.2963C8.18782 17.7446 6.37452 18.1628 5.68033 18.9476C4.98614 19.7324 4.73438 21.0417 4.73438 21.0417L8.2058 19.3348L12.2705 19.1821C12.2705 19.1821 12.7792 18.0048 13.3274 16.9954C13.8757 15.986 14.6473 12.9621 14.6473 12.9621Z"/><path fill="url(#paint4_linear_2788_22897)" d="M13.1035 17.2791C13.1035 17.2791 12.1515 18.2102 9.59406 18.5596C7.03694 18.919 5.70049 19.2146 5.12441 20.1651C4.53961 21.1159 4.62448 21.3422 5.24108 20.9075C5.85768 20.4728 10.4481 19.4406 10.3419 20.0202C10.236 20.6097 9.11319 20.4221 7.10281 20.9751C5.09243 21.528 4.34208 21.5489 3.61038 23.4979C3.61038 23.4979 6.98383 23.9211 8.90779 23.4004C10.8402 22.8695 10.703 23.5891 11.5129 22.2543C12.3141 20.9198 13.1035 17.2791 13.1035 17.2791Z"/><path fill="url(#paint5_linear_2788_22897)" d="M11.5433 21.6975C11.5433 21.6975 10.9835 22.2897 7.79704 22.6268C4.60189 22.9641 3.93786 22.6346 3.48045 23.7707C3.03177 24.9066 2.79934 25.3405 3.65859 24.8394C4.51755 24.3284 7.29959 23.8932 7.07478 24.2872C6.84969 24.6712 4.05331 24.5899 3.26088 25.9242C2.46844 27.2585 2.27344 28.7253 2.27344 28.7253C2.27344 28.7253 3.86442 27.2197 6.90014 27.1155L9.4444 26.6074C9.4444 26.6074 10.0861 26.1322 10.8103 23.915C11.5433 21.6975 11.5433 21.6975 11.5433 21.6975Z"/><path fill="url(#paint6_linear_2788_22897)" d="M9.99559 26.0059C9.99559 26.0059 9.13386 26.4175 6.65957 26.6155C4.18529 26.8135 3.04619 26.9843 2.58464 27.9714C2.12309 28.9585 2.1132 29.5454 2.45281 29.1979C2.79242 28.8505 5.53111 28.4264 4.91589 28.9108C4.30094 29.4051 2.91148 29.3641 2.43458 30.1131C1.95768 30.862 1.85938 32.0378 1.85938 32.0378C1.85938 32.0378 6.52654 31.5702 7.8195 30.0231C9.11218 28.4661 9.99559 26.0059 9.99559 26.0059Z"/><path fill="url(#paint7_linear_2788_22897)" d="M7.88772 29.8024C7.88772 29.8024 4.48923 31.9349 1.97845 31.4479C1.97845 31.4479 1.62464 32.5414 2.10341 32.4883C2.58217 32.4352 4.62507 32.11 3.96567 32.5757C3.30628 33.0414 1.91443 33.2292 1.62727 33.8934C1.34012 34.5575 0.991995 35.5414 1.53487 35.5959C2.07775 35.6505 2.14141 36.0563 1.56302 36.6092C0.984632 37.1621 1.14344 37.5355 1.07031 38.989C1.07031 38.989 5.55495 35.7229 7.88772 29.8024Z"/><path fill="url(#paint8_linear_2788_22897)" d="M7.31433 36.8775C7.40522 36.3779 7.65612 34.0943 7.11064 35.203C6.55671 36.322 6.90884 36.7397 5.14066 37.5245C3.37248 38.3093 3.39545 38.5075 3.2585 38.2926C3.12155 38.0777 3.61883 37.1194 2.99196 37.8128C2.36508 38.5063 1.45973 38.9192 1.08594 38.9792C1.08594 38.9792 3.53396 36.8931 5.04179 34.5944C6.5499 32.3057 8.08232 29.3204 8.67722 28.4191C9.2724 27.5277 9.95481 33.8614 9.62817 34.6758C9.30153 35.4901 7.20736 37.4273 7.31433 36.8775Z"/><path fill="url(#paint9_linear_2788_22897)" d="M12.1324 32.0003C12.1324 32.0003 11.1278 33.2411 10.8848 33.6057C10.6419 33.9803 10.7332 32.8643 10.6009 31.8738C10.4686 30.8833 10.1016 29.3028 9.95725 31.335C9.81288 33.3671 10.1234 34.1737 9.6119 34.9335C9.09166 35.6936 9.13142 35.5533 8.81412 35.7609C8.50555 35.9683 8.70491 33.716 8.38366 31.8956C8.0624 30.0753 7.83638 30.1114 8.10333 29.3484C8.37027 28.5854 10.3652 24.961 10.8251 23.9143C11.2762 22.8678 12.1324 32.0003 12.1324 32.0003Z"/><path fill="url(#paint10_linear_2788_22897)" d="M10.5158 24.4924C10.6043 24.2215 12.2473 19.2448 12.6448 18.4683C13.0424 17.6917 13.377 24.393 13.9815 26.0365C14.5857 27.67 14.9253 27.3226 14.6269 27.8975C14.1959 28.7247 13.2176 30.2829 13.1997 29.9553C13.1819 29.6278 12.0481 23.7042 12.0355 25.1362C12.0229 26.5681 12.669 30.3379 12.5828 31.0064C12.4966 31.6749 12.0455 32.0951 11.8179 32.3897C11.8179 32.3897 11.0876 30.3023 10.8633 28.2009C10.639 26.0995 10.2584 25.285 10.5158 24.4924Z"/><path fill="url(#paint11_linear_2788_22897)" d="M13.5162 16.1538C13.5162 16.1538 11.8996 19.2508 12.2036 20.7634C12.5076 22.276 14.2634 28.5899 14.1961 28.6813C14.0367 28.9144 14.9145 27.8262 14.8913 26.9918C14.8682 26.1573 14.4178 23.7739 14.6177 24.0566C14.8177 24.3394 15.0052 26.6903 15.2475 26.2959C15.49 25.9114 15.8351 25.7626 16.0566 25.2494C16.2781 24.7362 13.947 15.943 13.5162 16.1538Z"/><path fill="url(#paint12_linear_2788_22897)" d="M18.137 4.75271L16.5328 8.29674C16.5328 8.29674 17.3819 12.4586 19.2108 13.2329C19.2108 13.2329 19.3243 12.6035 19.0722 12.014C18.82 11.4245 17.8459 9.04565 18.012 7.79832C18.1869 6.55076 18.949 9.78051 19.3913 9.04248C19.8423 8.30421 18.3838 4.209 18.137 4.75271Z"/><path fill="url(#paint13_linear_2788_22897)" d="M13.5931 15.7856C13.5931 15.7856 14.6368 12.4957 15.0485 11.5995C15.4602 10.7033 17.6003 18.9053 17.6003 18.9053C17.6003 18.9053 17.6787 20.1558 17.5926 20.5161C17.5066 20.8764 17.2731 22.215 17.1149 21.2352C17.0624 20.9185 16.7654 19.0279 16.2405 18.0483C15.7156 17.0688 15.6831 16.841 16.4088 20.6484C17.1348 24.4657 15.8987 25.5439 15.8987 25.5439C15.8987 25.5439 14.7378 20.2176 14.1956 18.9303C13.6534 17.643 13.2711 16.7688 13.5931 15.7856Z"/><path fill="url(#paint14_linear_2788_22897)" d="M16.5479 8.29666C16.5479 8.29666 17.4662 12.4367 19.2259 13.2329C19.2259 13.2329 19.1735 13.8606 18.6423 13.597C18.1111 13.3334 19.119 14.7271 19.0366 15.2165C18.9541 15.7059 18.6353 17.1166 18.4095 16.8445C18.1836 16.5724 17.0974 12.6756 16.8021 12.7335C16.5069 12.7914 17.8333 15.9061 18.2379 17.5849C18.6426 19.2638 17.7916 20.0629 17.6034 20.5155C17.6034 20.5155 16.4118 16.2836 15.697 14.1262C14.9822 11.9689 15.0679 11.5986 15.0679 11.5986L16.5479 8.29666Z"/><path fill="url(#paint15_linear_2788_22897)" d="M19.3278 9.13565C19.3278 9.13565 18.0425 5.93038 17.8038 5.50952L18.2312 4.55319C18.2312 4.55319 19.9509 7.6768 19.7059 8.29004C19.4608 8.89336 19.3747 9.25364 19.3278 9.13565Z"/><path fill="url(#paint16_linear_2788_22897)" d="M1.07031 38.989C2.67582 37.6918 3.66462 36.5111 4.67297 35.0912C5.69005 33.6711 6.59011 32.125 7.42799 30.5409C8.26588 28.9568 9.26109 27.3783 10.0098 25.727C10.7585 24.0758 11.3139 22.3802 12.0094 20.7006L12.4537 19.4058C12.6253 18.9835 12.7969 18.5612 12.9598 18.1391L13.4573 16.8726L13.9547 15.6062L14.9406 13.0635C15.2751 12.2192 15.601 11.375 15.9355 10.5306C16.6046 8.84182 17.2827 7.16273 17.9787 5.50302C18.1506 5.09063 18.331 4.66807 18.5029 4.25569C18.6835 3.84306 18.8642 3.43044 19.0448 3.01781C19.2254 2.60518 19.4148 2.19231 19.5957 1.78962C19.6861 1.58827 19.7853 1.38668 19.8845 1.1851L20.0336 0.89265C20.0834 0.801791 20.1327 0.691061 20.1744 0.620311L20.1829 0.610131C20.2908 0.4083 20.2752 0.160198 20.1412 0.0545584C20.0073 -0.0510774 19.8173 0.0237896 19.7007 0.225864L19.701 0.235801C19.6345 0.356945 19.5936 0.4575 19.5353 0.558539L19.3868 0.87085C19.2879 1.08237 19.1974 1.28372 19.0985 1.49524C18.9092 1.90811 18.7288 2.33067 18.5485 2.75323C18.3681 3.17579 18.1962 3.58818 18.0159 4.01074C17.8442 4.43306 17.6726 4.85537 17.501 5.27769C16.8232 6.96672 16.1628 8.65527 15.5117 10.3634C15.1862 11.2175 14.8691 12.0614 14.5523 12.9153L13.6016 15.4669L13.1306 16.7425L12.6509 18.0185C12.488 18.4405 12.3251 18.8626 12.1622 19.2847L11.7353 20.579C11.0663 22.2678 10.5283 23.9629 9.81481 25.6231C9.09256 27.2835 8.12352 28.8613 7.30336 30.4549C6.49192 32.0482 5.61859 33.6135 4.61924 35.043C3.62834 36.4624 2.63733 37.5636 1.07031 38.989Z"/><defs><linearGradient id="paint0_linear_2788_22897" x1="10.352" x2="19.497" y1="10.376" y2="4.329" gradientUnits="userSpaceOnUse"><stop stop-color="#54B948"/><stop offset=".376" stop-color="#00A651"/><stop offset="1" stop-color="#005826"/></linearGradient><linearGradient id="paint1_linear_2788_22897" x1="7.111" x2="19.057" y1="14.335" y2="6.436" gradientUnits="userSpaceOnUse"><stop stop-color="#54B948"/><stop offset=".376" stop-color="#00A651"/><stop offset="1" stop-color="#005826"/></linearGradient><linearGradient id="paint2_linear_2788_22897" x1="4.754" x2="18.716" y1="18.806" y2="9.574" gradientUnits="userSpaceOnUse"><stop stop-color="#54B948"/><stop offset=".376" stop-color="#00A651"/><stop offset="1" stop-color="#005826"/></linearGradient><linearGradient id="paint3_linear_2788_22897" x1="4.236" x2="17.147" y1="22.296" y2="13.758" gradientUnits="userSpaceOnUse"><stop stop-color="#54B948"/><stop offset=".376" stop-color="#00A651"/><stop offset="1" stop-color="#005826"/></linearGradient><linearGradient id="paint4_linear_2788_22897" x1="3.609" x2="15.128" y1="25.293" y2="17.676" gradientUnits="userSpaceOnUse"><stop stop-color="#54B948"/><stop offset=".376" stop-color="#00A651"/><stop offset="1" stop-color="#005826"/></linearGradient><linearGradient id="paint5_linear_2788_22897" x1="1.471" x2="13.241" y1="29.321" y2="21.538" gradientUnits="userSpaceOnUse"><stop stop-color="#54B948"/><stop offset=".376" stop-color="#00A651"/><stop offset="1" stop-color="#005826"/></linearGradient><linearGradient id="paint6_linear_2788_22897" x1="1.081" x2="11.332" y1="32.428" y2="25.65" gradientUnits="userSpaceOnUse"><stop stop-color="#54B948"/><stop offset=".376" stop-color="#00A651"/><stop offset="1" stop-color="#005826"/></linearGradient><linearGradient id="paint7_linear_2788_22897" x1=".12" x2="9.239" y1="36.424" y2="30.407" gradientUnits="userSpaceOnUse"><stop stop-color="#54B948"/><stop offset=".376" stop-color="#00A651"/><stop offset="1" stop-color="#005826"/></linearGradient><linearGradient id="paint8_linear_2788_22897" x1="5.752" x2="4.781" y1="41.014" y2="29.899" gradientUnits="userSpaceOnUse"><stop stop-color="#54B948"/><stop offset=".376" stop-color="#00A651"/><stop offset="1" stop-color="#005826"/></linearGradient><linearGradient id="paint9_linear_2788_22897" x1="10.614" x2="9.469" y1="38.485" y2="25.376" gradientUnits="userSpaceOnUse"><stop stop-color="#54B948"/><stop offset=".376" stop-color="#00A651"/><stop offset="1" stop-color="#005826"/></linearGradient><linearGradient id="paint10_linear_2788_22897" x1="13.27" x2="11.916" y1="35.654" y2="20.157" gradientUnits="userSpaceOnUse"><stop stop-color="#54B948"/><stop offset=".376" stop-color="#00A651"/><stop offset="1" stop-color="#005826"/></linearGradient><linearGradient id="paint11_linear_2788_22897" x1="14.781" x2="13.552" y1="31.745" y2="17.675" gradientUnits="userSpaceOnUse"><stop stop-color="#54B948"/><stop offset=".376" stop-color="#00A651"/><stop offset="1" stop-color="#005826"/></linearGradient><linearGradient id="paint12_linear_2788_22897" x1="20.202" x2="16.131" y1="8.714" y2="9.266" gradientUnits="userSpaceOnUse"><stop stop-color="#54B948"/><stop offset=".376" stop-color="#00A651"/><stop offset="1" stop-color="#005826"/></linearGradient><linearGradient id="paint13_linear_2788_22897" x1="14.232" x2="17.502" y1="24.321" y2="13.119" gradientUnits="userSpaceOnUse"><stop stop-color="#54B948"/><stop offset=".376" stop-color="#00A651"/><stop offset="1" stop-color="#005826"/></linearGradient><linearGradient id="paint14_linear_2788_22897" x1="15.786" x2="18.606" y1="19.342" y2="9.681" gradientUnits="userSpaceOnUse"><stop stop-color="#54B948"/><stop offset=".376" stop-color="#00A651"/><stop offset="1" stop-color="#005826"/></linearGradient><linearGradient id="paint15_linear_2788_22897" x1="17.495" x2="21.05" y1="6.077" y2="7.683" gradientUnits="userSpaceOnUse"><stop stop-color="#54B948"/><stop offset=".376" stop-color="#00A651"/><stop offset="1" stop-color="#005826"/></linearGradient><linearGradient id="paint16_linear_2788_22897" x1="-4.074" x2="27.435" y1="31.914" y2="11.079" gradientUnits="userSpaceOnUse"><stop stop-color="#54B948"/><stop offset=".376" stop-color="#00A651"/><stop offset="1" stop-color="#005826"/></linearGradient></defs></svg>